<?xml version="1.0" encoding="UTF-8"?>
<svg id="Layer_1" data-name="Layer 1" xmlns="http://www.w3.org/2000/svg" width="100" height="100" viewBox="0 0 100 100">
  <defs>
    <style>
      .cls-1 {
        fill: #fff;
      }
    </style>
  </defs>
  <path class="cls-1" d="m69.36,33.43l-38.68,22.35c-1.45.83-3.23.83-4.68,0l-12.39-7.13c-1.43-.85-2.3-2.39-2.29-4.05v-14.27c0-1.67.89-3.21,2.34-4.05l12.35-7.13c1.45-.83,3.23-.83,4.68,0l12.35,7.13c1.45.84,2.34,2.38,2.34,4.05v6.85c0,.65.52,1.17,1.17,1.17.2,0,.4-.05.57-.15l6.43-3.72c.72-.42,1.16-1.19,1.16-2.02v-7.52c0-1.67-.89-3.21-2.33-4.05l-21.74-12.52c-1.45-.84-3.23-.84-4.68,0L4.27,20.89c-1.45.84-2.34,2.38-2.34,4.05v25.06c0,1.67.89,3.21,2.34,4.05l21.7,12.52c1.45.84,3.23.84,4.68,0l38.68-22.35c1.45-.83,3.23-.83,4.68,0l12.35,7.13c1.45.84,2.34,2.38,2.34,4.05v14.27c0,1.67-.89,3.21-2.34,4.05l-12.31,7.13c-1.45.83-3.23.83-4.68,0l-12.35-7.13c-1.45-.84-2.34-2.38-2.34-4.05v-6.85c0-.64-.51-1.16-1.16-1.17-.21,0-.41.05-.59.16l-6.43,3.71c-.72.42-1.16,1.19-1.16,2.02v7.53c0,1.67.89,3.21,2.33,4.05l21.7,12.52c1.45.84,3.23.84,4.68,0l21.7-12.52c1.45-.84,2.34-2.38,2.34-4.05v-25.06c0-1.67-.89-3.21-2.34-4.05l-21.7-12.52c-1.45-.84-3.23-.84-4.68,0Z"/>
</svg>