<?xml version="1.0" encoding="utf-8"?>
<!-- Generator: Adobe Illustrator 27.1.1, SVG Export Plug-In . SVG Version: 6.00 Build 0)  -->
<svg version="1.1" id="Layer_1" xmlns="http://www.w3.org/2000/svg" xmlns:xlink="http://www.w3.org/1999/xlink" x="0px" y="0px"
	 viewBox="0 0 100 100" style="enable-background:new 0 0 100 100;" xml:space="preserve">
<style type="text/css">
	.st0{fill:#48C1EF;}
	.st1{fill:none;}
	.st2{fill:#FFFFFF;}
	.st3{fill:none;stroke:#FFFFFF;stroke-width:8;stroke-linecap:round;stroke-linejoin:round;}
	.st4{fill-rule:evenodd;clip-rule:evenodd;fill:#020203;}
	.st5{fill-rule:evenodd;clip-rule:evenodd;fill:#2C5AA6;}
	.st6{fill-rule:evenodd;clip-rule:evenodd;fill:#29ABE3;}
</style>
<g>
	<path class="st0" d="M48.7,26.6L17.3,52.5v37.9c0,1.5,1.2,2.7,2.7,2.7l19.1,0c1.5,0,2.7-1.2,2.7-2.7V64.1c0-1.5,1.2-2.7,2.7-2.7
		h10.9c1.5,0,2.7,1.2,2.7,2.7v26.3c0,1.5,1.2,2.7,2.7,2.7c0,0,0,0,0,0L80,93.2c1.5,0,2.7-1.2,2.7-2.7v-38L51.3,26.6
		C50.5,26,49.5,26,48.7,26.6L48.7,26.6z M98.4,44.2L84.1,32.5V8.9c0-1.1-0.9-2-2-2h-9.6c-1.1,0-2,0.9-2,2v12.4L55.2,8.7
		c-3-2.5-7.4-2.5-10.4,0L1.6,44.2c-0.9,0.7-1,2-0.3,2.9c0,0,0,0,0,0l4.3,5.3c0.7,0.9,2,1,2.9,0.3c0,0,0,0,0,0l40.1-33
		c0.8-0.6,1.8-0.6,2.6,0l40.1,33c0.9,0.7,2.2,0.6,2.9-0.3c0,0,0,0,0,0l4.3-5.3C99.4,46.2,99.2,44.9,98.4,44.2
		C98.4,44.2,98.4,44.2,98.4,44.2L98.4,44.2z"/>
</g>
</svg>
