<?xml version="1.0" encoding="utf-8"?>
<!-- Generator: Adobe Illustrator 27.1.1, SVG Export Plug-In . SVG Version: 6.00 Build 0)  -->
<svg version="1.1" id="Layer_1" xmlns="http://www.w3.org/2000/svg" xmlns:xlink="http://www.w3.org/1999/xlink" x="0px" y="0px"
	 viewBox="0 0 100 100" style="enable-background:new 0 0 100 100;" xml:space="preserve">
<style type="text/css">
	.st0{fill:#48C1EF;}
	.st1{fill:none;}
	.st2{fill:#FFFFFF;}
	.st3{fill:none;stroke:#FFFFFF;stroke-width:8;stroke-linecap:round;stroke-linejoin:round;}
	.st4{fill-rule:evenodd;clip-rule:evenodd;fill:#020203;}
	.st5{fill-rule:evenodd;clip-rule:evenodd;fill:#2C5AA6;}
	.st6{fill-rule:evenodd;clip-rule:evenodd;fill:#29ABE3;}
</style>
<g>
	<path class="st0" d="M10.8,66.3h26.1H50c2,0,3.3-1.3,3.3-3.3S52,59.8,50,59.8h-9.8V33.7c0-2-1.3-3.3-3.3-3.3H10.8
		c-2,0-3.3,1.3-3.3,3.3V63C7.6,65,8.9,66.3,10.8,66.3z"/>
	<path class="st0" d="M95.7,13.4c0-0.3,0-0.3,0-0.7c-0.3-0.3-0.3-0.7-0.7-1l-6.5-6.5c-1-1-2.9-1.3-4.2-0.3L45.1,31
		c-1.3,0.7-1.6,2.3-1.3,3.6c0.3,1.3,1.6,2.3,3.3,2.3h13.7L48.4,47.4c-1.3,1.3-1.6,3.3-0.3,4.6c0.7,0.7,1.6,1.3,2.6,1.3
		c0.7,0,1.6-0.3,2-0.7l18.6-15.7c0.7-0.3,1.3-0.7,1.6-1.3l16.3-14.4V63c0,2-1.3,3.3-3.3,3.3S82.6,65,82.6,63c2,0,3.3-1.3,3.3-3.3
		s-1.3-3.3-3.3-3.3h-3.3c-2,0-3.3,1.3-3.3,3.3V63c0,5.5,4.2,9.8,9.8,9.8c5.5,0,9.8-4.2,9.8-9.8V14.1C95.7,13.8,95.7,13.8,95.7,13.4z
		 M67,30.4h-9.5l10.8-7.2L67,30.4z M74.8,24.8l1.3-6.9l9.5-6.2l2.3,2.3L74.8,24.8z"/>
	<path class="st0" d="M56.5,69.5H17.4c-7.2,0-13.1,5.9-13.1,13.1c0,7.2,5.9,13.1,13.1,13.1h39.2c7.2,0,13.1-5.9,13.1-13.1
		C69.6,75.4,63.7,69.5,56.5,69.5z M22.9,84.9c-0.3,0-0.3,0.3-0.7,0.3c0,0-0.3,0.3-0.7,0.3c-0.3,0-0.3,0-0.7,0.3c-0.3,0-0.3,0-0.7,0
		c-1,0-1.6-0.3-2.3-1c-0.3-0.7-0.7-1.3-0.7-2.3c0-1,0.3-1.6,1-2.3c1.3-1.3,3.3-1.3,4.6,0c0.7,0.7,1,1.3,1,2.3
		C23.9,83.6,23.6,84.2,22.9,84.9z M40.2,83.2c0,0.3,0,0.3-0.3,0.7c0,0.3-0.3,0.3-0.3,0.7l-0.3,0.3c-0.3,0.3-0.7,0.7-1,0.7
		c-0.3,0.3-1,0.3-1.3,0.3c-1,0-1.6-0.3-2.3-1c-0.7-0.7-1-1.3-1-2.3c0-1,0.3-1.6,1-2.3c1-1,2.3-1.3,3.6-0.7c0.3,0.3,0.7,0.3,1,0.7
		c0.7,0.7,1,1.3,1,2.3C40.2,82.9,40.2,82.9,40.2,83.2z M55.5,84.9c-0.3,0.3-0.7,0.7-1,0.7c-0.3,0.3-1,0.3-1.3,0.3s-1,0-1.3-0.3
		c-0.3-0.3-0.7-0.3-1-0.7c-0.7-0.7-1-1.3-1-2.3c0-1,0.3-1.6,1-2.3c0.3-0.3,0.7-0.7,1-0.7c0.7-0.3,1.6-0.3,2.6,0
		c0.3,0.3,0.7,0.3,1,0.7c0.7,0.7,1,1.3,1,2.3C56.5,83.6,56.2,84.2,55.5,84.9z"/>
</g>
</svg>
