<?xml version="1.0" encoding="utf-8"?>
<!-- Generator: Adobe Illustrator 27.1.1, SVG Export Plug-In . SVG Version: 6.00 Build 0)  -->
<svg version="1.1" id="Layer_1" xmlns="http://www.w3.org/2000/svg" xmlns:xlink="http://www.w3.org/1999/xlink" x="0px" y="0px"
	 viewBox="0 0 100 100" style="enable-background:new 0 0 100 100;" xml:space="preserve">
<style type="text/css">
	.st0{fill:#48C1EF;}
	.st1{fill:none;}
	.st2{fill:#FFFFFF;}
	.st3{fill:none;stroke:#FFFFFF;stroke-width:8;stroke-linecap:round;stroke-linejoin:round;}
	.st4{fill-rule:evenodd;clip-rule:evenodd;fill:#020203;}
	.st5{fill-rule:evenodd;clip-rule:evenodd;fill:#2C5AA6;}
	.st6{fill-rule:evenodd;clip-rule:evenodd;fill:#29ABE3;}
</style>
<g id="Layer_2_00000161627395510569036710000011794071958584086687_">
	<g id="Interface-Solid">
		<g id="interface-solid-award-star">
			<path class="st1" d="M25.7,19.6c0,8.7,4.6,16.7,12.2,21.1V10.4H25.7V19.6z"/>
			<path class="st1" d="M62.2,40.6c7.5-4.3,12.2-12.4,12.2-21.1v-9.1H62.2V40.6z"/>
			<path class="st0" d="M66.6,65.5l-8.8-0.4l-3.1-8.8c-0.9-2.6-3.7-3.9-6.2-3.1c-1.4,0.5-2.6,1.6-3.1,3.1l-3.1,8.8l-8.8,0.4
				c-2.1,0.1-3.8,1.4-4.5,3.4c-0.7,2-0.1,4.2,1.6,5.5l7,5.8l-2.4,9.1c-0.6,2,0.2,4.2,2,5.5c1.7,1.2,3.9,1.2,5.6,0l7.3-5.1l7.3,5.1
				c1.7,1.2,3.9,1.2,5.6,0c1.7-1.2,2.5-3.4,2-5.5l-2.4-9.1l7-5.8c1.6-1.3,2.2-3.5,1.6-5.5C70.4,66.9,68.6,65.6,66.6,65.5z"/>
			<path class="st0" d="M77.4,4.4H22.6c-1.7,0-3,1.4-3,3c0,0,0,0,0,0v12.2C19.6,36.4,33.2,50,50,50s30.4-13.6,30.4-30.4V7.4
				C80.4,5.7,79.1,4.4,77.4,4.4C77.4,4.4,77.4,4.4,77.4,4.4z M37.8,40.6c-7.5-4.3-12.2-12.4-12.2-21.1v-9.1h12.2V40.6z M74.3,19.6
				c0,8.7-4.6,16.7-12.2,21.1V10.4h12.2V19.6z"/>
		</g>
	</g>
</g>
</svg>
